<mxfile host="Electron" modified="2023-10-02T12:47:18.510Z" agent="Mozilla/5.0 (Macintosh; Intel Mac OS X 10_15_7) AppleWebKit/537.36 (KHTML, like Gecko) draw.io/21.5.0 Chrome/112.0.5615.204 Electron/24.5.1 Safari/537.36" etag="tImd_dDmEXXZRIt7jvge" version="21.5.0" type="device">
  <diagram name="Page-1" id="9OsiWr2DK1uv8TPzktgw">
    <mxGraphModel dx="956" dy="1029" grid="1" gridSize="10" guides="1" tooltips="1" connect="1" arrows="1" fold="1" page="1" pageScale="1" pageWidth="827" pageHeight="1169" math="0" shadow="0">
      <root>
        <mxCell id="0" />
        <mxCell id="1" parent="0" />
        <mxCell id="HK-soE2jhvm3L1eewfno-1" value="&lt;font style=&quot;font-size: 15px;&quot;&gt;Noise Vector, V&lt;/font&gt;" style="rounded=0;whiteSpace=wrap;html=1;fillColor=#f5f5f5;gradientColor=#b3b3b3;strokeColor=#666666;" parent="1" vertex="1">
          <mxGeometry x="120" y="280" width="160" height="50" as="geometry" />
        </mxCell>
        <mxCell id="HK-soE2jhvm3L1eewfno-2" value="&lt;span style=&quot;font-size: 15px;&quot;&gt;Malware Samples, M&lt;/span&gt;" style="rounded=0;whiteSpace=wrap;html=1;fillColor=#f5f5f5;gradientColor=#b3b3b3;strokeColor=#666666;" parent="1" vertex="1">
          <mxGeometry x="120" y="410" width="160" height="50" as="geometry" />
        </mxCell>
        <mxCell id="HK-soE2jhvm3L1eewfno-3" value="&lt;font style=&quot;font-size: 15px;&quot;&gt;Generator&lt;br&gt;(U-Net)&lt;br&gt;&lt;/font&gt;" style="shape=parallelogram;perimeter=parallelogramPerimeter;whiteSpace=wrap;html=1;fixedSize=1;fillColor=#dae8fc;gradientColor=#7ea6e0;strokeColor=#6c8ebf;" parent="1" vertex="1">
          <mxGeometry x="380" y="340" width="150" height="60" as="geometry" />
        </mxCell>
        <mxCell id="HK-soE2jhvm3L1eewfno-4" value="&lt;span style=&quot;font-size: 15px;&quot;&gt;Adversarial &lt;br&gt;Malware Samples, M&#39;&lt;/span&gt;" style="rounded=0;whiteSpace=wrap;html=1;fillColor=#f5f5f5;gradientColor=#b3b3b3;strokeColor=#666666;" parent="1" vertex="1">
          <mxGeometry x="640" y="340" width="160" height="50" as="geometry" />
        </mxCell>
        <mxCell id="HK-soE2jhvm3L1eewfno-5" value="&lt;span style=&quot;font-size: 15px;&quot;&gt;Benign Samples, B&lt;/span&gt;" style="rounded=0;whiteSpace=wrap;html=1;fillColor=#f5f5f5;gradientColor=#b3b3b3;strokeColor=#666666;" parent="1" vertex="1">
          <mxGeometry x="840" y="340" width="160" height="50" as="geometry" />
        </mxCell>
        <mxCell id="HK-soE2jhvm3L1eewfno-6" value="&lt;font style=&quot;font-size: 15px;&quot;&gt;Black Box&lt;br&gt;(SVM)&lt;br&gt;&lt;/font&gt;" style="shape=parallelogram;perimeter=parallelogramPerimeter;whiteSpace=wrap;html=1;fixedSize=1;fillColor=#dae8fc;gradientColor=#7ea6e0;strokeColor=#6c8ebf;" parent="1" vertex="1">
          <mxGeometry x="750" y="470" width="150" height="60" as="geometry" />
        </mxCell>
        <mxCell id="HK-soE2jhvm3L1eewfno-7" value="&lt;span style=&quot;font-size: 15px;&quot;&gt;Adversarial Malware and Benign Samples, M&#39; and B, with labels&lt;/span&gt;" style="rounded=0;whiteSpace=wrap;html=1;fillColor=#f5f5f5;gradientColor=#b3b3b3;strokeColor=#666666;" parent="1" vertex="1">
          <mxGeometry x="745" y="580" width="175" height="70" as="geometry" />
        </mxCell>
        <mxCell id="HK-soE2jhvm3L1eewfno-8" value="&lt;font style=&quot;font-size: 15px;&quot;&gt;Substitute Detector&lt;br&gt;(Feed Forward)&lt;br&gt;&lt;/font&gt;" style="shape=parallelogram;perimeter=parallelogramPerimeter;whiteSpace=wrap;html=1;fixedSize=1;fillColor=#dae8fc;gradientColor=#7ea6e0;strokeColor=#6c8ebf;" parent="1" vertex="1">
          <mxGeometry x="735" y="720" width="180" height="60" as="geometry" />
        </mxCell>
        <mxCell id="HK-soE2jhvm3L1eewfno-9" value="&lt;span style=&quot;font-size: 15px;&quot;&gt;Objective Function&lt;/span&gt;" style="rounded=0;whiteSpace=wrap;html=1;fillColor=#f5f5f5;gradientColor=#b3b3b3;strokeColor=#666666;" parent="1" vertex="1">
          <mxGeometry x="375" y="725" width="160" height="50" as="geometry" />
        </mxCell>
        <mxCell id="HK-soE2jhvm3L1eewfno-10" value="&lt;span style=&quot;font-size: 15px;&quot;&gt;Apply Gradients&lt;/span&gt;" style="rounded=0;whiteSpace=wrap;html=1;fillColor=#f5f5f5;gradientColor=#b3b3b3;strokeColor=#666666;" parent="1" vertex="1">
          <mxGeometry x="375" y="580" width="160" height="50" as="geometry" />
        </mxCell>
        <mxCell id="HK-soE2jhvm3L1eewfno-12" value="" style="endArrow=none;html=1;rounded=0;" parent="1" edge="1">
          <mxGeometry width="50" height="50" relative="1" as="geometry">
            <mxPoint x="280" y="300" as="sourcePoint" />
            <mxPoint x="320" y="300" as="targetPoint" />
          </mxGeometry>
        </mxCell>
        <mxCell id="HK-soE2jhvm3L1eewfno-13" value="" style="endArrow=none;html=1;rounded=0;" parent="1" edge="1">
          <mxGeometry width="50" height="50" relative="1" as="geometry">
            <mxPoint x="320" y="360" as="sourcePoint" />
            <mxPoint x="320" y="300" as="targetPoint" />
          </mxGeometry>
        </mxCell>
        <mxCell id="HK-soE2jhvm3L1eewfno-14" value="" style="endArrow=classic;html=1;rounded=0;entryX=0.081;entryY=0.332;entryDx=0;entryDy=0;entryPerimeter=0;" parent="1" target="HK-soE2jhvm3L1eewfno-3" edge="1">
          <mxGeometry width="50" height="50" relative="1" as="geometry">
            <mxPoint x="320" y="360" as="sourcePoint" />
            <mxPoint x="370" y="310" as="targetPoint" />
          </mxGeometry>
        </mxCell>
        <mxCell id="HK-soE2jhvm3L1eewfno-16" value="" style="endArrow=none;html=1;rounded=0;" parent="1" edge="1">
          <mxGeometry width="50" height="50" relative="1" as="geometry">
            <mxPoint x="280" y="440" as="sourcePoint" />
            <mxPoint x="320" y="440" as="targetPoint" />
          </mxGeometry>
        </mxCell>
        <mxCell id="HK-soE2jhvm3L1eewfno-17" value="" style="endArrow=none;html=1;rounded=0;" parent="1" edge="1">
          <mxGeometry width="50" height="50" relative="1" as="geometry">
            <mxPoint x="320" y="440" as="sourcePoint" />
            <mxPoint x="320" y="380" as="targetPoint" />
          </mxGeometry>
        </mxCell>
        <mxCell id="HK-soE2jhvm3L1eewfno-18" value="" style="endArrow=classic;html=1;rounded=0;entryX=0.026;entryY=0.652;entryDx=0;entryDy=0;entryPerimeter=0;" parent="1" target="HK-soE2jhvm3L1eewfno-3" edge="1">
          <mxGeometry width="50" height="50" relative="1" as="geometry">
            <mxPoint x="320" y="380" as="sourcePoint" />
            <mxPoint x="370" y="330" as="targetPoint" />
          </mxGeometry>
        </mxCell>
        <mxCell id="HK-soE2jhvm3L1eewfno-19" value="" style="endArrow=classic;html=1;rounded=0;entryX=-0.015;entryY=0.6;entryDx=0;entryDy=0;entryPerimeter=0;" parent="1" target="HK-soE2jhvm3L1eewfno-4" edge="1">
          <mxGeometry width="50" height="50" relative="1" as="geometry">
            <mxPoint x="520" y="370" as="sourcePoint" />
            <mxPoint x="570" y="320" as="targetPoint" />
          </mxGeometry>
        </mxCell>
        <mxCell id="HK-soE2jhvm3L1eewfno-20" value="" style="endArrow=none;html=1;rounded=0;" parent="1" edge="1">
          <mxGeometry width="50" height="50" relative="1" as="geometry">
            <mxPoint x="720" y="420" as="sourcePoint" />
            <mxPoint x="720" y="390" as="targetPoint" />
          </mxGeometry>
        </mxCell>
        <mxCell id="HK-soE2jhvm3L1eewfno-21" value="" style="endArrow=none;html=1;rounded=0;" parent="1" edge="1">
          <mxGeometry width="50" height="50" relative="1" as="geometry">
            <mxPoint x="720" y="420" as="sourcePoint" />
            <mxPoint x="810" y="420" as="targetPoint" />
          </mxGeometry>
        </mxCell>
        <mxCell id="HK-soE2jhvm3L1eewfno-22" value="" style="endArrow=none;html=1;rounded=0;" parent="1" edge="1">
          <mxGeometry width="50" height="50" relative="1" as="geometry">
            <mxPoint x="920" y="420" as="sourcePoint" />
            <mxPoint x="920" y="390" as="targetPoint" />
          </mxGeometry>
        </mxCell>
        <mxCell id="HK-soE2jhvm3L1eewfno-23" value="" style="endArrow=none;html=1;rounded=0;" parent="1" edge="1">
          <mxGeometry width="50" height="50" relative="1" as="geometry">
            <mxPoint x="830" y="420" as="sourcePoint" />
            <mxPoint x="920" y="420" as="targetPoint" />
          </mxGeometry>
        </mxCell>
        <mxCell id="HK-soE2jhvm3L1eewfno-24" value="" style="endArrow=classic;html=1;rounded=0;entryX=0.4;entryY=0;entryDx=0;entryDy=0;entryPerimeter=0;" parent="1" target="HK-soE2jhvm3L1eewfno-6" edge="1">
          <mxGeometry width="50" height="50" relative="1" as="geometry">
            <mxPoint x="810" y="420" as="sourcePoint" />
            <mxPoint x="860" y="370" as="targetPoint" />
          </mxGeometry>
        </mxCell>
        <mxCell id="HK-soE2jhvm3L1eewfno-25" value="" style="endArrow=classic;html=1;rounded=0;entryX=0.533;entryY=0;entryDx=0;entryDy=0;entryPerimeter=0;" parent="1" target="HK-soE2jhvm3L1eewfno-6" edge="1">
          <mxGeometry width="50" height="50" relative="1" as="geometry">
            <mxPoint x="830" y="420" as="sourcePoint" />
            <mxPoint x="880" y="370" as="targetPoint" />
          </mxGeometry>
        </mxCell>
        <mxCell id="HK-soE2jhvm3L1eewfno-26" value="" style="endArrow=classic;html=1;rounded=0;entryX=0.429;entryY=-0.009;entryDx=0;entryDy=0;entryPerimeter=0;" parent="1" target="HK-soE2jhvm3L1eewfno-7" edge="1">
          <mxGeometry width="50" height="50" relative="1" as="geometry">
            <mxPoint x="820" y="530" as="sourcePoint" />
            <mxPoint x="870" y="480" as="targetPoint" />
          </mxGeometry>
        </mxCell>
        <mxCell id="HK-soE2jhvm3L1eewfno-27" value="" style="endArrow=classic;html=1;rounded=0;entryX=0.468;entryY=-0.01;entryDx=0;entryDy=0;entryPerimeter=0;" parent="1" target="HK-soE2jhvm3L1eewfno-8" edge="1">
          <mxGeometry width="50" height="50" relative="1" as="geometry">
            <mxPoint x="820" y="650" as="sourcePoint" />
            <mxPoint x="870" y="600" as="targetPoint" />
          </mxGeometry>
        </mxCell>
        <mxCell id="HK-soE2jhvm3L1eewfno-28" value="" style="endArrow=classic;html=1;rounded=0;entryX=1;entryY=0.5;entryDx=0;entryDy=0;" parent="1" target="HK-soE2jhvm3L1eewfno-9" edge="1">
          <mxGeometry width="50" height="50" relative="1" as="geometry">
            <mxPoint x="745" y="750" as="sourcePoint" />
            <mxPoint x="795" y="700" as="targetPoint" />
          </mxGeometry>
        </mxCell>
        <mxCell id="HK-soE2jhvm3L1eewfno-29" value="" style="endArrow=classic;html=1;rounded=0;entryX=0.5;entryY=1;entryDx=0;entryDy=0;" parent="1" target="HK-soE2jhvm3L1eewfno-10" edge="1">
          <mxGeometry width="50" height="50" relative="1" as="geometry">
            <mxPoint x="454.6" y="725" as="sourcePoint" />
            <mxPoint x="454.6" y="640" as="targetPoint" />
          </mxGeometry>
        </mxCell>
        <mxCell id="HK-soE2jhvm3L1eewfno-30" value="" style="endArrow=classic;html=1;rounded=0;entryX=0.467;entryY=1;entryDx=0;entryDy=0;entryPerimeter=0;" parent="1" target="HK-soE2jhvm3L1eewfno-3" edge="1">
          <mxGeometry width="50" height="50" relative="1" as="geometry">
            <mxPoint x="450" y="580" as="sourcePoint" />
            <mxPoint x="500" y="530" as="targetPoint" />
          </mxGeometry>
        </mxCell>
      </root>
    </mxGraphModel>
  </diagram>
</mxfile>
